<?xml version="1.0"?>
<svg fill="#ffffff" xmlns="http://www.w3.org/2000/svg" id="Layer_1" data-name="Layer 1" viewBox="0 0 512 512" width="512" height="512"><title>Cells</title><path d="M421.249,154a8,8,0,0,0-6.93-4H300.662a8,8,0,0,0-6.93,4L236.9,252.5a8,8,0,0,0,0,8L293.732,359a8,8,0,0,0,6.93,4H414.319a8,8,0,0,0,6.93-4l56.828-98.5a8,8,0,0,0,0-8ZM409.7,347H305.282l-52.213-90.5L305.282,166H409.7l52.213,90.5Z"/><path d="M328.533,185.569a8,8,0,0,0-10.929,2.923L277.112,258.55a8,8,0,1,0,13.853,8.007L331.456,196.5A8,8,0,0,0,328.533,185.569Z"/><path d="M90.751,238a8,8,0,0,0,6.93,4H211.338a8,8,0,0,0,6.93-4L275.1,139.5a8,8,0,0,0,0-8L218.268,33a8,8,0,0,0-6.93-4H97.681a8,8,0,0,0-6.93,4L33.923,131.5a8,8,0,0,0,0,8ZM102.3,45H206.718l52.213,90.5L206.718,226H102.3L50.088,135.5Z"/><path d="M125.552,64.283a8,8,0,0,0-10.929,2.923L74.131,137.263a8,8,0,1,0,13.853,8.007l40.491-70.058A8,8,0,0,0,125.552,64.283Z"/><path d="M97.681,484H211.338a8,8,0,0,0,6.93-4L275.1,381.5a8,8,0,0,0,0-8L218.268,275a8,8,0,0,0-6.93-4H97.681a8,8,0,0,0-6.93,4L33.923,373.5a8,8,0,0,0,0,8L90.751,480A8,8,0,0,0,97.681,484Zm4.62-197H206.718l52.213,90.5L206.718,468H102.3L50.088,377.5Z"/><path d="M125.552,306.855a8,8,0,0,0-10.929,2.923L74.131,379.836a8,8,0,1,0,13.853,8.007l40.491-70.058A8,8,0,0,0,125.552,306.855Z"/></svg>
